<?xml version="1.0" encoding="utf-8" ?>
<svg baseProfile="tiny" height="279.4mm" version="1.2" width="279.4mm" xmlns="http://www.w3.org/2000/svg" xmlns:ev="http://www.w3.org/2001/xml-events" xmlns:xlink="http://www.w3.org/1999/xlink"><defs /><polyline fill="none" points="1.1017,0.0 1.1177,0.0523 1.1301,0.1045 1.1381,0.1564 1.1414,0.2079 1.1392,0.2588 1.1306,0.309 1.1156,0.3584 1.0946,0.4067 1.0683,0.454 1.0372,0.5 1.0017,0.5446 0.9623,0.5878 0.9208,0.6293 0.8749,0.6691 0.8233,0.7071 0.7672,0.7431 0.7066,0.7771 0.6409,0.809 0.5715,0.8387 0.5014,0.866 0.4317,0.891 0.3632,0.9135 0.2966,0.9336 0.2324,0.9511 0.1717,0.9659 0.1149,0.9781 0.0618,0.9877 0.0099,0.9945 -0.042,0.9986 -0.0938,1.0 -0.1459,0.9986 -0.1984,0.9945 -0.2517,0.9877 -0.3062,0.9781 -0.3627,0.9659 -0.4186,0.9511 -0.4733,0.9336 -0.5271,0.9135 -0.58,0.891 -0.6286,0.866 -0.6714,0.8387 -0.7109,0.809 -0.7485,0.7771 -0.7854,0.7431 -0.8236,0.7071 -0.8642,0.6691 -0.9068,0.6293 -0.9505,0.5878 -0.9947,0.5446 -1.0389,0.5 -1.0824,0.454 -1.1242,0.4067 -1.1621,0.3584 -1.1926,0.309 -1.215,0.2588 -1.2283,0.2079 -1.2319,0.1564 -1.2259,0.1045 -1.2106,0.0523 -1.1866,-0.0 -1.1577,-0.0523 -1.1259,-0.1045 -1.0921,-0.1564 -1.0573,-0.2079 -1.0198,-0.2588 -0.9793,-0.309 -0.9371,-0.3584 -0.893,-0.4067 -0.8481,-0.454 -0.8032,-0.5 -0.7592,-0.5446 -0.7167,-0.5878 -0.6753,-0.6293 -0.6342,-0.6691 -0.5935,-0.7071 -0.5505,-0.7431 -0.5039,-0.7771 -0.4539,-0.809 -0.401,-0.8387 -0.346,-0.866 -0.2887,-0.891 -0.2291,-0.9135 -0.1675,-0.9336 -0.1055,-0.9511 -0.0452,-0.9659 0.0123,-0.9781 0.0693,-0.9877 0.1267,-0.9945 0.1842,-0.9986 0.2411,-1.0 0.296,-0.9986 0.3465,-0.9945 0.3926,-0.9877 0.4365,-0.9781 0.4795,-0.9659 0.5225,-0.9511 0.5655,-0.9336 0.6074,-0.9135 0.6457,-0.891 0.68,-0.866 0.7101,-0.8387 0.7353,-0.809 0.7558,-0.7771 0.772,-0.7431 0.7843,-0.7071 0.7935,-0.6691 0.8014,-0.6293 0.811,-0.5878 0.8224,-0.5446 0.8343,-0.5 0.8469,-0.454 0.8603,-0.4067 0.8745,-0.3584 0.8894,-0.309 0.9051,-0.2588 0.9204,-0.2079 0.9349,-0.1564 0.9484,-0.1045 0.9608,-0.0523 0.9726,0.0" stroke="black" stroke-width="1" /></svg>